<?xml version="1.0" encoding="utf-8"?>
<!-- Generator: Adobe Illustrator 23.0.3, SVG Export Plug-In . SVG Version: 6.00 Build 0)  -->
<svg version="1.1"
	 id="Layer_1" xmlns:cc="http://creativecommons.org/ns#" xmlns:dc="http://purl.org/dc/elements/1.1/" xmlns:inkscape="http://www.inkscape.org/namespaces/inkscape" xmlns:rdf="http://www.w3.org/1999/02/22-rdf-syntax-ns#" xmlns:sodipodi="http://sodipodi.sourceforge.net/DTD/sodipodi-0.dtd" xmlns:svg="http://www.w3.org/2000/svg"
	 xmlns="http://www.w3.org/2000/svg" xmlns:xlink="http://www.w3.org/1999/xlink" x="0px" y="0px" viewBox="0 0 390.53 65.85"
	 style="enable-background:new 0 0 390.53 65.85;" xml:space="preserve">
<style type="text/css">
	.st0{fill:#00AEEF;}
	.st1{clip-path:url(#SVGID_2_);fill:#00AFE9;}
</style>
<defs>
	
	
		<inkscape:perspective  id="perspective4207" inkscape:persp3d-origin="297.638 : 280.63033 : 1" inkscape:vp_x="0 : 420.9455 : 1" inkscape:vp_y="0 : 1000 : 0" inkscape:vp_z="595.276 : 420.9455 : 1" sodipodi:type="inkscape:persp3d">
		</inkscape:perspective>
</defs>
<sodipodi:namedview  bordercolor="#666666" borderopacity="1.0" gridtolerance="10.0" guidetolerance="10.0" id="base" inkscape:current-layer="Layer_1" inkscape:cx="73.791107" inkscape:cy="37.277891" inkscape:pageopacity="0.0" inkscape:pageshadow="2" inkscape:window-height="978" inkscape:window-width="1280" inkscape:window-x="-4" inkscape:window-y="-4" inkscape:zoom="4.390117" objecttolerance="10.0" pagecolor="#ffffff" showgrid="false">
	</sodipodi:namedview>
<g id="g6604" transform="matrix(26.77527,0,0,26.77527,-8671.1389,-11193.393)">
	<path id="path21" class="st0" d="M338.36,418.76c-0.08-0.14-0.25-0.25-0.43-0.25c-0.16,0-0.3,0.07-0.3,0.24
		c0,0.14,0.18,0.24,0.36,0.36c0.2,0.13,0.41,0.28,0.41,0.55c0,0.35-0.34,0.57-0.74,0.57c-0.16,0-0.33-0.03-0.53-0.1l0.03-0.47
		c0.09,0.19,0.27,0.34,0.52,0.34c0.2,0,0.34-0.09,0.34-0.26c0-0.14-0.12-0.23-0.27-0.32c-0.31-0.18-0.5-0.33-0.5-0.6
		c0-0.4,0.34-0.54,0.68-0.54c0.2,0,0.33,0.04,0.46,0.04L338.36,418.76 M336.66,419.18c-0.04,0.07-0.1,0.17-0.13,0.25
		c-0.03,0.14-0.04,0.32-0.04,0.53c0,0.09,0.01,0.2,0.05,0.24h-0.51c0.09-0.09,0.13-0.61,0.12-0.77c-0.07-0.24-0.16-0.46-0.3-0.74
		c-0.09-0.17-0.19-0.34-0.26-0.37c0.11-0.01,0.26-0.02,0.33-0.02c0.13,0,0.16,0.02,0.24,0.19c0.12,0.27,0.21,0.48,0.27,0.63
		c0.13-0.2,0.22-0.34,0.34-0.53c0.03-0.05,0.05-0.1,0.05-0.16c0-0.04-0.01-0.09-0.03-0.11h0.5
		C337.19,418.33,336.75,419.02,336.66,419.18 M334.89,418.75l-0.3,0.65h0.49L334.89,418.75 M335.48,420.21c-0.16,0-0.17,0-0.3-0.45
		l-0.05-0.16c-0.08,0.04-0.22,0.05-0.44,0.05h-0.22l-0.04,0.08c-0.06,0.12-0.13,0.27-0.13,0.37c0,0.02,0,0.05,0.01,0.09h-1.33
		c0.08-0.09,0.1-0.36,0.14-0.86l0.01-0.12c0.02-0.28,0.03-0.5,0.03-0.66c0-0.13-0.01-0.21-0.05-0.24h0.51
		c-0.07,0.06-0.1,0.36-0.13,0.86l-0.01,0.12c-0.01,0.18-0.04,0.37-0.04,0.56c0,0.09,0.03,0.1,0.12,0.1c0.31,0,0.39-0.01,0.53-0.1
		c0.09-0.16,0.19-0.36,0.28-0.57l0.13-0.28c0.12-0.26,0.25-0.53,0.25-0.58c0-0.04-0.01-0.07-0.02-0.1h0.41c0,0,0.17,0.61,0.2,0.74
		l0.08,0.3c0.14,0.5,0.23,0.74,0.34,0.84C335.67,420.2,335.53,420.21,335.48,420.21 M332.17,420.23c-0.48,0-0.76-0.4-0.76-0.85
		c0-0.62,0.34-1.1,0.98-1.1c0.2,0,0.3,0.04,0.46,0.04l-0.05,0.48c-0.09-0.17-0.24-0.28-0.45-0.28c-0.4,0-0.56,0.43-0.56,0.81
		c0,0.4,0.23,0.63,0.53,0.63c0.16,0,0.31-0.04,0.55-0.21C332.77,420.04,332.54,420.23,332.17,420.23 M330.49,418.54
		c-0.05,0-0.1,0-0.15,0c-0.01,0.08-0.03,0.22-0.04,0.44l-0.01,0.13c0.02,0,0.06,0.01,0.09,0.01c0.23,0,0.39-0.14,0.39-0.36
		C330.77,418.63,330.67,418.54,330.49,418.54 M331.17,420.27c-0.14,0-0.17-0.02-0.22-0.09l-0.53-0.73c-0.04-0.06-0.07-0.1-0.14-0.1
		h-0.01l-0.01,0.14c-0.01,0.19-0.02,0.35-0.02,0.46c0,0.13,0.02,0.2,0.05,0.24h-0.51c0.07-0.07,0.1-0.28,0.14-0.86l0.01-0.12
		c0.02-0.28,0.03-0.5,0.03-0.65c0-0.13-0.02-0.22-0.05-0.25c0.29,0,0.69,0,0.69,0c0.23,0,0.54,0.04,0.54,0.41
		c0,0.3-0.2,0.47-0.45,0.54c0.02,0.02,0.07,0.08,0.09,0.11l0.38,0.51c0.24,0.31,0.26,0.33,0.34,0.37
		C331.41,420.27,331.26,420.27,331.17,420.27 M328.8,418.75l-0.3,0.65h0.49L328.8,418.75 M329.39,420.21c-0.16,0-0.17,0-0.3-0.45
		l-0.05-0.16c-0.08,0.04-0.22,0.05-0.44,0.05h-0.22l-0.04,0.08c-0.04,0.09-0.13,0.27-0.13,0.37c0,0.02,0,0.05,0.01,0.09h-0.45
		c0.13-0.13,0.29-0.43,0.52-0.91l0.13-0.28c0.12-0.25,0.25-0.54,0.25-0.58c0-0.04-0.01-0.07-0.02-0.1h0.41c0,0,0.11,0.41,0.2,0.74
		l0.08,0.3c0.14,0.5,0.23,0.74,0.34,0.84C329.58,420.2,329.44,420.21,329.39,420.21 M327.08,418.54c-0.04,0-0.09,0-0.13,0
		c-0.02,0.13-0.03,0.26-0.04,0.4c0,0-0.01,0.12-0.01,0.11h0.05c0.24,0,0.46-0.08,0.46-0.3C327.4,418.63,327.3,418.54,327.08,418.54
		 M327.02,419.28h-0.13l-0.02,0.28c-0.01,0.12-0.01,0.22-0.02,0.35c0,0.02,0.05,0.05,0.18,0.05c0.26,0,0.44-0.13,0.44-0.35
		C327.46,419.37,327.26,419.28,327.02,419.28 M327.05,420.19h-0.66c0.08-0.07,0.1-0.36,0.14-0.86l0.01-0.12
		c0.02-0.28,0.03-0.5,0.03-0.66c0-0.13-0.02-0.22-0.05-0.25h0.73c0.18,0,0.53,0.01,0.53,0.37c0,0.24-0.23,0.39-0.43,0.45
		c0.29,0.03,0.51,0.17,0.51,0.47C327.85,419.93,327.55,420.19,327.05,420.19"/>
	<g>
		<defs>
			<path id="SVGID_1_" d="M307.42,423.75v-8.96c0-0.52,0.38-0.89,0.89-0.89c-0.51,0-0.92-0.42-0.92-0.93l0-2.52
				c0-0.23,0.18-0.41,0.4-0.41h21.77c0.92,0,1.66,0.76,1.66,1.7v12.85c0,0.42-0.34,0.86-0.75,0.86h-21.39
				C308.16,425.44,307.42,424.44,307.42,423.75"/>
		</defs>
		<clipPath id="SVGID_2_">
			<use xlink:href="#SVGID_1_"  style="overflow:visible;"/>
		</clipPath>
		<path id="path4050" class="st1" d="M324.91,418.05c-0.07,0-0.08,0.01-0.1,0.03c-0.01,0-0.02,0-0.03,0c-0.05,0-0.11,0.01-0.17,0.04
			c-0.05,0.03-0.08,0.1-0.05,0.14c0,0,0.02-0.03,0.08-0.03c0.01,0,0.02,0,0.03,0c0.09,0.01,0.15,0.06,0.14,0.18
			c-0.01,0.12-0.05,0.25-0.24,0.25c0,0-0.02,0-0.05,0c-0.09-0.01-0.11-0.06-0.11-0.06s0.07-0.02,0.07-0.11
			c0-0.06-0.06-0.12-0.14-0.15c-0.03-0.01-0.05-0.01-0.08-0.01c-0.09,0-0.2,0.04-0.27,0.13c-0.16,0.21-0.18,0.53-0.14,0.82
			c0.04,0.29,0.22,0.56,0.23,0.57c0,0.01,0.01,0.01,0.01,0.01c0,0,0,0,0.01,0c0.08-0.08,0.16-0.18,0.19-0.25
			c0.03,0.03,0.02,0.09,0,0.15c-0.02,0.06-0.06,0.15-0.08,0.18c-0.02,0.03-0.04,0.06-0.01,0.07c0,0,0.01,0,0.01,0
			c0.04,0,0.12-0.06,0.21-0.19c0.1-0.14,0.16-0.27,0.16-0.27c0.01,0,0.02,0.01,0.02,0.05c0,0.04-0.04,0.17-0.11,0.29
			c-0.07,0.12-0.14,0.2-0.15,0.22c-0.01,0.01,0,0.02,0,0.02c0.01,0,0.13,0.12,0.32,0.22c0.22,0.12,0.32,0.14,0.32,0.14
			s0.1-0.02,0.32-0.14c0.19-0.1,0.32-0.22,0.32-0.23c0.01,0,0.01-0.01,0-0.02c-0.01-0.02-0.08-0.1-0.15-0.22
			c-0.07-0.12-0.11-0.26-0.11-0.29c0-0.04,0.01-0.05,0.02-0.05c0,0,0.05,0.13,0.16,0.27c0.09,0.12,0.18,0.19,0.21,0.19
			c0,0,0.01,0,0.01,0c0.03-0.02,0.01-0.05-0.01-0.07c-0.01-0.03-0.06-0.11-0.08-0.18c-0.02-0.06-0.04-0.12,0-0.15
			c0.03,0.07,0.11,0.18,0.19,0.25c0,0,0,0,0.01,0c0,0,0.01,0,0.01-0.01c0.01-0.01,0.19-0.28,0.23-0.57c0.04-0.29,0.03-0.6-0.14-0.82
			c-0.07-0.09-0.18-0.13-0.27-0.13c-0.03,0-0.06,0-0.08,0.01c-0.08,0.02-0.14,0.08-0.14,0.15c0,0.09,0.07,0.11,0.07,0.11
			s-0.02,0.05-0.11,0.06c-0.02,0-0.03,0-0.05,0c-0.07,0-0.12-0.02-0.17-0.09c-0.05-0.07-0.05-0.21-0.05-0.26
			c0-0.05-0.01-0.16-0.06-0.2c-0.05-0.05-0.11-0.06-0.19-0.06C324.92,418.05,324.92,418.05,324.91,418.05"/>
	</g>
</g>
</svg>
