<?xml version="1.0" encoding="utf-8"?>
<!-- Generator: Adobe Illustrator 23.0.3, SVG Export Plug-In . SVG Version: 6.00 Build 0)  -->
<svg version="1.1"
	 id="svg4594" xmlns:cc="http://creativecommons.org/ns#" xmlns:dc="http://purl.org/dc/elements/1.1/" xmlns:inkscape="http://www.inkscape.org/namespaces/inkscape" xmlns:rdf="http://www.w3.org/1999/02/22-rdf-syntax-ns#" xmlns:sodipodi="http://sodipodi.sourceforge.net/DTD/sodipodi-0.dtd" xmlns:svg="http://www.w3.org/2000/svg"
	 xmlns="http://www.w3.org/2000/svg" xmlns:xlink="http://www.w3.org/1999/xlink" x="0px" y="0px" viewBox="0 0 116.91 41.05"
	 style="enable-background:new 0 0 116.91 41.05;" xml:space="preserve">
<sodipodi:namedview  bordercolor="#666666" borderopacity="1.0" fit-margin-bottom="0" fit-margin-left="0" fit-margin-right="0" fit-margin-top="0" id="base" inkscape:current-layer="layer1" inkscape:cx="57.952531" inkscape:cy="20.02402" inkscape:document-units="mm" inkscape:pageopacity="0.0" inkscape:pageshadow="2" inkscape:window-height="744" inkscape:window-maximized="1" inkscape:window-width="1280" inkscape:window-x="-4" inkscape:window-y="-4" inkscape:zoom="7.7391636" pagecolor="#ffffff" showgrid="false" units="px">
	</sodipodi:namedview>
<g id="layer1" transform="translate(-68.57744,-139.49118)" inkscape:groupmode="layer" inkscape:label="Layer 1">
	<g id="g4659" transform="translate(0.13229086,-0.13228869)">
		<path id="path1851" inkscape:connector-curvature="0" d="M173.04,148.28c0-0.96,0.45-1.41,1.41-1.41h1.12
			c0.96,0,1.41,0.45,1.41,1.41v23.73c0,0.96-0.45,1.41-1.41,1.41h-1.12c-0.96,0-1.41-0.45-1.41-1.41V148.28z M172.48,180.17h5.06
			c4.89,0,7.31-2.42,7.31-7.31v-25.42c0-4.89-2.42-7.31-7.31-7.31h-5.06c-4.89,0-7.31,2.42-7.31,7.31v25.42
			C165.17,177.75,167.58,180.17,172.48,180.17"/>
		<path id="path1855" inkscape:connector-curvature="0" d="M148.33,180.17h4.84c4.89,0,7.31-2.42,7.31-7.31v-7.34h-7.76v6.5
			c0,0.96-0.45,1.41-1.41,1.41h-1.01c-0.96,0-1.41-0.45-1.41-1.41v-23.73c0-0.96,0.45-1.41,1.41-1.41h0.9
			c0.96,0,1.41,0.45,1.41,1.41v5.51h7.76v-6.35c0-4.89-2.42-7.31-7.31-7.31h-4.73c-4.89,0-7.31,2.42-7.31,7.31v25.42
			C141.02,177.75,143.44,180.17,148.33,180.17"/>
		<path id="path1859" inkscape:connector-curvature="0" d="M102.47,150.08l1.74,17.15h-3.49L102.47,150.08z M99.99,174.1h4.95
			l0.62,5.74h7.82l-5.17-39.37H97.46l-5.17,39.37h7.14L99.99,174.1z"/>
		<path id="path1863" inkscape:connector-curvature="0" d="M125.56,147.21h1.69c0.96,0,1.41,0.45,1.41,1.41v9.39
			c0,0.96-0.45,1.41-1.41,1.41h-1.69V147.21z M125.56,166.16h3.66c4.89,0,7.31-2.42,7.31-7.31v-11.08c0-4.89-2.42-7.31-7.31-7.31
			h-11.53v39.37h7.87L125.56,166.16z"/>
		<path id="path1867" inkscape:connector-curvature="0" d="M76.26,180.17h4.84c4.89,0,7.31-2.42,7.31-7.31v-7.34h-7.76v6.5
			c0,0.96-0.45,1.41-1.41,1.41h-1.01c-0.96,0-1.41-0.45-1.41-1.41v-23.73c0-0.96,0.45-1.41,1.41-1.41h0.9
			c0.96,0,1.41,0.45,1.41,1.41v5.51h7.76v-6.35c0-4.89-2.42-7.31-7.31-7.31h-4.72c-4.89,0-7.31,2.42-7.31,7.31v25.42
			C68.95,177.75,71.36,180.17,76.26,180.17"/>
	</g>
</g>
</svg>
