<?xml version="1.0" encoding="utf-8"?>
<!-- Generator: Adobe Illustrator 23.0.3, SVG Export Plug-In . SVG Version: 6.00 Build 0)  -->
<svg version="1.1" id="svg1978" xmlns:svg="http://www.w3.org/2000/svg"
	 xmlns="http://www.w3.org/2000/svg" xmlns:xlink="http://www.w3.org/1999/xlink" x="0px" y="0px" viewBox="0 0 786.97 143.02"
	 style="enable-background:new 0 0 786.97 143.02;" xml:space="preserve">
<style type="text/css">
	.st0{fill:#1C62B7;}
</style>
<g id="layer1" transform="translate(222.6327,-275.4212)">
	<g id="g2901" transform="translate(5.314294,5.30821)">
		<path id="path2677" class="st0" d="M-208.84,411.77h-19.11v-58.05h19.11c20.22,0,31.05,9.88,31.05,28.99
			C-177.78,401.65-186.78,411.77-208.84,411.77z M-210.22,362.55h-6.27v40.39h6.13c15.79,0.32,20.88-7.38,20.88-20.15
			C-189.48,368.73-196.79,362.55-210.22,362.55"/>
		<path id="path2679" class="st0" d="M-160.27,387.28c0.31-5.3,2.91-10.2,8.9-10.2c5.82,0,8.69,4.33,8.45,10.2H-160.27z
			 M-151.02,370.26c-15.27,0-20.56,10.84-20.56,21.03c0,12.13,6.09,21.2,19.11,21.6c10.35,0.08,19.53-3.05,20.15-14.37h-10.59
			c0,4.58-3.7,7.55-8.03,7.55c-7.3,0-9.62-5.38-9.73-11.96l29.25-0.08C-130.56,381.98-135.79,370.26-151.02,370.26"/>
		<path id="path2681" class="st0" d="M-84.45,411.77h-10.94l-0.07-6.58c-1.83,5.22-6.92,7.87-13.16,7.87
			c-7.41,0-14.4-4.5-14.47-15.26v-26.1h11.08v24.57c-0.07,5.78,2.18,8.99,7.62,9.07c4.92,0,8.93-2.81,8.93-10.6V371.7h11.01V411.77"
			/>
		<path id="path2683" class="st0" d="M-70.26,371.87v-6.35l10.7-5.62v11.96h10.21v7.79h-10.21V399c0,3.93,1.35,6.18,5.37,6.34
			c1.52,0,2.91,0.16,4.92-0.4v6.91c-5.23,0.72-11.25,2.09-16.24-0.56c-3.77-2-4.74-5.54-4.74-11.16v-20.48h-8.59v-7.79H-70.26"/>
		<path id="path2685" class="st0" d="M-7.77,394.51c1.77,3.53,1.7,8.19-0.48,11.4c-3.77,5.78-11.98,7.23-18.31,7.07
			c-9-0.56-17-2.89-16.62-13.65h10.94c-0.1,4.66,2.8,6.34,6.96,6.5c4.02,0,8.03-1.36,8.03-5.06c0-2.97-2.8-4.25-6.4-5.06
			c-4.12-0.88-7.06-1.28-11.67-3.13c-3.67-1.77-7.3-4.74-7.3-10.35c0-4.66,3.64-8.19,8.38-10.12c3.18-1.36,7.13-1.77,10.52-1.77
			c7.62,0,15.89,2.65,15.41,12.28H-18.6c0-1.44-0.31-3.05-1.52-4.01c-2.25-2.01-9.17-2.25-11.32,1.04
			c-2.42,5.62,5.05,6.02,13.33,8.27C-12.89,389.13-9.36,391.3-7.77,394.51"/>
		<path id="path2687" class="st0" d="M19.62,370.18c8.76,0,17.83,4.02,17.83,15.02l-10.77-0.08c0-5.14-2.8-8.27-8.1-8.03
			c-1.38,0.08-2.84,0.56-4.02,1.2c-3.32,1.93-4.36,7.31-4.36,12.69c0,5.7,1.38,11.24,3.88,13.25c1.66,1.61,4.64,2.09,7.2,1.61
			c4.26-0.72,5.54-4.9,5.64-8.51l10.52-0.08c0.14,11.48-9.24,15.82-19.04,15.65C5.32,412.41-0.7,403.9-0.7,391.3
			C-0.7,378.53,6.6,370.18,19.62,370.18"/>
		<path id="path2689" class="st0" d="M45.93,353.8h11.08v24.25c2.91-5.14,7.24-7.38,13.09-7.38c7.41,0,14.4,5.54,14.4,13.49v27.62
			H73.55V387.2c0-5.46-2.32-9.07-7.55-9.07c-4.88,0-9.07,3.21-9.07,10.6v23.05H45.93V353.8"/>
		<path id="path2691" class="st0" d="M104.4,387.28c0.31-5.3,2.87-10.2,8.9-10.2c5.78,0,8.69,4.33,8.45,10.2H104.4z M113.64,370.26
			c-15.27,0-20.56,10.84-20.56,21.03c0,12.13,6.09,21.2,19.11,21.6c10.35,0.08,19.53-3.05,20.15-14.37h-10.59
			c0,4.58-3.7,7.55-8.03,7.55c-7.3,0-9.62-5.38-9.73-11.96l29.25-0.08C134.1,381.98,128.88,370.26,113.64,370.26"/>
		<path id="path2693" class="st0" d="M201.54,410.09c-3.74,1.2-8.59,1.69-13.78,1.69h-20.98v-57.89h22.33
			c9.97,0,20.39,3.13,20.81,14.29c0.24,7.07-4.57,11.56-10.59,13.57c4.64,1.2,8.41,2.57,10.97,6.91c2.25,3.85,2.42,8.99,0.59,13.25
			C208.95,405.91,205.97,408.56,201.54,410.09z M189.11,362.55h-11.32v15.01h11.49c6.02,0,9.14-2.49,9.14-7.39
			C198.43,365.6,194.83,362.55,189.11,362.55z M190.26,386.24l-12.46-0.08v17.02h12.05c8.03,0,10.59-3.94,10.59-8.83
			C200.43,390.57,197.7,386.16,190.26,386.24"/>
		<path id="path2695" class="st0" d="M236.58,405.99c-4.09-0.32-6.51-2.33-6.51-6.18c0.07-8.43,10.77-7.55,16.31-7.55
			C246.62,398.93,246.06,405.83,236.58,405.99z M256.9,382.71c0-8.19-8.83-12.29-19.04-12.21c-9.73,0.16-16.79,3.29-16.93,12.69
			h10.66c-0.24-4.34,2.73-6.58,6.68-6.66c5.92,0,8.59,2.73,8.03,9.48c-5.89,0.32-13.74-0.08-19.59,2.65
			c-4.26,2.01-7.55,5.78-7.55,11.8c0,7.71,5.37,12.37,13.22,12.61c5.64,0.56,12.05-1.93,14.54-7.15l0.42,5.86h9.55
			C256.9,402.05,256.9,392.5,256.9,382.71"/>
		<path id="path2697" class="st0" d="M267.56,371.7h11.08v6.43c2.91-5.22,8.2-7.47,14.16-7.47c6.65,0,13.47,3.85,13.47,13.49v27.62
			h-11.08V387.2c0.07-5.22-2.49-9.07-7.55-9.07c-4.99,0-9.07,3.21-9.07,10.6v23.05h-11.01V371.7"/>
		<path id="path2699" class="st0" d="M345.04,411.77l-16.86-22.97l15.27-17.1h13.02l-15.82,16.7l18.63,23.37H345.04z M316.96,353.8
			h10.91v57.97h-10.91V353.8z"/>
		<path id="path2701" class="st0" d="M418.02,270.11h141.01v141.58H418.02V270.11z M503.7,303.65l-55.08,73.92h24.89l55.29-73.92
			H503.7z M437.65,392.08h101.75V289.72H437.65V392.08z"/>
	</g>
</g>
</svg>
