<?xml version="1.0" encoding="utf-8"?>
<!-- Generator: Adobe Illustrator 23.0.3, SVG Export Plug-In . SVG Version: 6.00 Build 0)  -->
<svg version="1.1" id="svg5317" xmlns:svg="http://www.w3.org/2000/svg"
	 xmlns="http://www.w3.org/2000/svg" xmlns:xlink="http://www.w3.org/1999/xlink" x="0px" y="0px" viewBox="0 0 260 61"
	 style="enable-background:new 0 0 260 61;" xml:space="preserve">
<style type="text/css">
	.st0{fill:#003E24;}
	.st1{fill-rule:evenodd;clip-rule:evenodd;fill:#003E24;}
</style>
<g id="layer1" transform="translate(-298.06905,-463.32268)">
	<path id="path130" class="st0" d="M298.07,518.2h2.06c6.37,0,6.95-3.16,6.95-9.92v-44.95l6.5,6.46v40.3
		c0,7.14-2.44,12.81-9.07,14.16L298.07,518.2"/>
	<path id="path134" class="st1" d="M333.95,485.68c5.54,0,9.53,3.93,9.53,9.34c0,6.04-3.67,9.78-9.53,9.78
		c-5.34,0-9.01-3.93-9.01-9.85C324.94,489.61,328.74,485.68,333.95,485.68z M334.02,510.28c9.27,0,15.65-6.18,15.65-15.32
		c0-8.57-6.57-14.75-15.65-14.75c-8.63,0-15.26,6.44-15.26,14.75C318.76,503.84,325.13,510.28,334.02,510.28"/>
	<path id="path138" class="st0" d="M373.15,491.73c0-4.12-2.07-6.75-5.35-6.75c-2.38,0-4.31,1.09-6.89,4.05v20.67h-6.05v-42.82h6.05
		v17.32c2.12-2.57,5.28-4.12,8.37-4.12c5.73,0,9.91,3.93,9.91,11.85v17.77h-6.05V491.73"/>
	<path id="path142" class="st0" d="M404.49,491.86c0-4.18-2.06-6.76-5.35-6.76c-2.38,0-4.31,1.09-6.89,3.99v20.61h-6.05v-29h6.05
		v3.63c2.12-2.58,5.28-4.12,8.37-4.12c5.54,0,9.91,3.8,9.91,11.72v17.77h-6.05V491.86"/>
	<path id="path146" class="st0" d="M428.51,463.32l5.82,5.95v34.44h13.04l5.66,5.99h-24.53V463.32"/>
	<path id="path150" class="st1" d="M463.69,485.49c3.8,0,6.18,2.57,6.44,6.21h-13.9C457.06,487.87,459.57,485.49,463.69,485.49z
		 M475.57,506.7c-0.96-0.84-3.77-3.64-3.77-3.64c-2.19,0.96-4.25,1.41-6.37,1.41c-5.28,0-8.44-2.77-9.33-7.81h20.02
		c0-11.17-4.9-16.46-12.56-16.46c-7.98,0-13.52,5.92-13.52,14.68c0,7.98,5.02,15.39,14.03,15.39
		C468.91,510.28,472.05,509.19,475.57,506.7"/>
	<path id="path154" class="st0" d="M509.13,510.28l-8.57-20.66l-8.51,20.66h-1.8l-12.99-29.61h6.46l7.45,17.36l7.14-17.36h4.51
		l7.17,17.36l7.41-17.37h6.42l-12.89,29.62H509.13"/>
	<path id="path158" class="st1" d="M526.77,470.16c0-1.94,1.54-3.54,3.41-3.54c1.86,0,3.41,1.61,3.41,3.54c0,1.99-1.55,3.6-3.41,3.6
		C528.31,473.76,526.77,472.15,526.77,470.16z M527.28,480.66h6.06v29.04h-6.06V480.66z"/>
	<path id="path162" class="st0" d="M538.49,507.57V501c3.93,2.77,7.41,3.94,9.6,3.94c2.1,0,3.74-0.82,3.81-2.71
		c0.04-1-0.73-2.06-1.96-2.9c-1.22-0.91-2.9-1.74-4.57-2.77c-3.29-1.94-6.7-4.44-6.7-8.44c0-4.96,3.51-7.92,9.52-7.92
		c2.7,0,5.41,0.78,8.5,2.45v6.05c-3.41-2.32-6.61-3.23-8.67-3.23c-2.25,0-3.31,0.99-3.24,2.46c0.06,1.47,1.77,2.62,6.96,5.56
		c4.88,2.77,6.31,5.2,6.31,8.22c0,5.15-4.06,8.57-9.53,8.57C544.99,510.28,542.29,509.57,538.49,507.57"/>
</g>
</svg>
