<?xml version="1.0" encoding="utf-8"?>
<!-- Generator: Adobe Illustrator 23.0.3, SVG Export Plug-In . SVG Version: 6.00 Build 0)  -->
<svg version="1.1" id="Capa_1" xmlns="http://www.w3.org/2000/svg" xmlns:xlink="http://www.w3.org/1999/xlink" x="0px" y="0px"
	 viewBox="0 0 85.04 28.64" style="enable-background:new 0 0 85.04 28.64;" xml:space="preserve">
<style type="text/css">
	.st0{fill:#128ECE;}
</style>
<g>
	<path class="st0" d="M20.93,0L4.33,0C1.95,0,0,1.95,0,4.33l0,13.74c0,2.38,1.95,4.33,4.33,4.33l14.24,0
		c4.34,0.08,6.26,3.86,6.68,6.24l0.01-24.31C25.26,1.95,23.31,0,20.93,0 M16.48,18.63c-0.17,0-2.4,0.03-3.84-1.55
		c-1.45,1.58-3.62,1.55-3.84,1.55c-0.23,0-5.04,0.07-5.04-5.09l0-8.03c0-0.21,0.17-0.37,0.37-0.37l1.65,0
		c0.21,0,0.37,0.17,0.37,0.37l0,7.68c0,1.34,0.46,3.32,2.65,3.32c2.17,0,2.64-1.96,2.64-3.3l0-7.69c0-0.21,0.17-0.37,0.37-0.37h1.65
		c0.21,0,0.37,0.17,0.37,0.37l0,7.69c0,1.34,0.47,3.3,2.65,3.3c2.18,0,2.65-1.98,2.65-3.32l0-7.68c0-0.21,0.17-0.37,0.37-0.37h1.65
		c0.21,0,0.37,0.17,0.37,0.37l0,8.03C21.51,18.7,16.64,18.63,16.48,18.63"/>
	<path class="st0" d="M34.18,5.02c-4.02,0-6.23,2.41-6.23,6.78c0,4.39,2.21,6.81,6.23,6.81c4.02,0,6.23-2.42,6.23-6.81
		C40.42,7.43,38.2,5.02,34.18,5.02 M34.19,16.47c-2.57,0-3.82-1.53-3.82-4.67c0-3.12,1.25-4.64,3.82-4.64
		c2.57,0,3.82,1.52,3.82,4.64C38.01,14.94,36.76,16.47,34.19,16.47"/>
	<path class="st0" d="M63.4,5.01c-4.02,0-6.15,2.36-6.15,6.81c0,4.44,2.12,6.73,6.15,6.73c1.36,0,2.64-0.45,3.54-1.24v1.24
		c0,2.86-2.31,3.29-3.68,3.29c-2.13,0-2.92-0.99-3.19-1.24c-0.15-0.13-0.33-0.42-0.66-0.17l-1.2,0.93c-0.16,0.12-0.18,0.34-0.06,0.5
		c0.03,0.04,1.46,2.17,5.12,2.17c3.81,0,6.09-2.05,6.09-5.48l0-7.9C69.35,7.17,67.07,5.01,63.4,5.01 M63.4,16.41
		c-2.5,0-3.77-1.51-3.77-4.6c0-3.14,1.23-4.67,3.77-4.67c2.22,0,3.54,1.31,3.54,3.51l0,3.77C66.74,14.76,65.63,16.41,63.4,16.41"/>
	<path class="st0" d="M48.83,5.01c-3.82,0-6.02,2.53-6.02,6.77l0,6.27c0,0.21,0.17,0.37,0.37,0.37h1.64c0.2,0,0.37-0.17,0.37-0.37
		l0-6.48c0.06-2.9,1.25-4.34,3.64-4.41c2.38,0.07,3.58,1.52,3.64,4.41l0,6.49c0,0.21,0.17,0.37,0.37,0.37h1.64
		c0.21,0,0.37-0.17,0.37-0.37l0-6.28C54.85,7.54,52.65,5.01,48.83,5.01"/>
	<path class="st0" d="M84.88,16.82c-0.1-0.12-0.55-0.68-0.74-0.96c-0.36-0.51-0.63-1.08-0.63-1.69c0-0.05-0.01-3.53-0.01-3.53
		c0-3.48-2.28-5.64-5.95-5.64c-4.02,0-6.15,2.36-6.15,6.81c0,3.81,1.57,6.08,4.56,6.64c2.24,0.38,4.66-0.37,5.77-1.82
		c0.19,0.35,1.11,1.45,1.32,1.67c0.18,0.18,0.35,0.37,0.69,0.07l1.16-0.97C85.13,17.23,85.05,16.99,84.88,16.82 M77.55,16.46
		c-2.5,0-3.77-1.56-3.77-4.64c0-3.14,1.23-4.67,3.77-4.67c2.22,0,3.54,1.31,3.54,3.51v3.09C81.09,14.37,79.78,16.46,77.55,16.46"/>
</g>
</svg>
